<?xml version="1.0" encoding="UTF-8" standalone="no"?>
<!DOCTYPE svg PUBLIC "-//W3C//DTD SVG 1.1//EN" "http://www.w3.org/Graphics/SVG/1.1/DTD/svg11.dtd">
<svg width="100%" height="100%" viewBox="0 0 86 86" version="1.1" xmlns="http://www.w3.org/2000/svg" xmlns:xlink="http://www.w3.org/1999/xlink" xml:space="preserve" xmlns:serif="http://www.serif.com/" style="fill-rule:evenodd;clip-rule:evenodd;stroke-linejoin:round;stroke-miterlimit:2;">
    <g id="Layer_1">
        <g transform="matrix(-1,-1.22465e-16,1.22465e-16,-1,86.001,86.001)">
            <path d="M43,0.3C19.419,0.3 0.3,19.417 0.3,43L0.3,82.285C0.3,84.164 1.838,85.701 3.716,85.701L82.284,85.701C84.163,85.701 85.7,84.164 85.7,82.285L85.7,43C85.7,19.417 66.583,0.3 43,0.3Z" style="fill:url(#_Linear1);fill-rule:nonzero;"/>
        </g>
        <g transform="matrix(0.875794,0,0,0.875794,-0.789704,-3.2958)">
            <g transform="matrix(1.14182,0,0,1.14182,0.9017,3.76321)">
                <path d="M30.388,0.301C24.813,1.976 19.707,4.733 15.311,8.326L14.975,12.072L14.975,55.309C16.851,59.439 19.612,63.08 23.016,65.991L25.484,64.14L28.987,66.768L32.49,64.14L35.994,66.768L39.497,64.14L43,66.768L46.503,64.14L50.006,66.768L53.51,64.14L57.013,66.768L60.516,64.14L62.984,65.992C66.389,63.08 69.15,59.44 71.025,55.311L71.025,12.042L70.692,8.329C66.295,4.734 61.187,1.976 55.611,0.301L30.388,0.301Z" style="fill:rgb(41,152,189);fill-rule:nonzero;"/>
            </g>
            <g transform="matrix(1.14182,0,0,1.14182,0.9017,3.76321)">
                <path d="M25.599,0.301C21.94,1.888 18.54,3.961 15.48,6.437L14.975,12.072L14.975,55.309C16.609,58.907 18.916,62.135 21.735,64.831L21.981,65.016L25.484,62.389L28.987,65.016L32.49,62.389L35.994,65.016L39.497,62.389L43,65.016L46.503,62.389L50.006,65.016L53.51,62.389L57.013,65.016L60.516,62.389L64.019,65.016L64.271,64.827C67.088,62.131 69.392,58.906 71.025,55.311L71.025,12.042L70.523,6.439C67.462,3.962 64.061,1.889 60.401,0.301L25.599,0.301Z" style="fill:rgb(242,241,239);fill-rule:nonzero;"/>
            </g>
            <g transform="matrix(1,0,0,1,0,-11.8733)">
                <path d="M50,0C37.826,0 26.671,4.355 18,11.587L18,78L22,75L26,78L30,75L34,78L38,75L42,78L46,75L50,78L54,75L58,78L62,75L66,78L70,75L74,78L78,75L82,78L82,11.587C73.328,4.355 62.174,0 50,0Z" style="fill:rgb(242,241,239);fill-rule:nonzero;"/>
            </g>
            <path d="M53.192,61.422L53.192,59.776C53.723,59.838 54.053,60.11 54.465,60.11C54.949,60.11 55.256,59.676 55.256,59.194C55.256,58.302 53.9,58.006 53.192,57.98L53.192,57.597C53.192,57.262 53.192,57.015 52.874,57.015C52.556,57.015 52.556,57.262 52.556,57.597L52.556,57.98C51.154,58.141 50.022,59.181 50.022,60.766C50.022,62.537 51.437,62.859 52.556,63.204L52.556,65.272C51.872,65.197 51.283,64.801 50.777,64.801C50.293,64.801 49.986,65.197 49.986,65.68C49.986,66.744 51.601,67.017 52.556,67.041L52.556,67.425C52.556,67.71 52.556,68.007 52.874,68.007C53.192,68.007 53.192,67.71 53.192,67.425L53.192,67.029C54.667,66.905 55.87,65.841 55.87,64.193C55.87,62.203 54.337,61.77 53.192,61.422ZM52.556,61.199C52.179,61.051 51.932,60.865 51.932,60.544C51.932,60.148 52.203,59.888 52.556,59.789L52.556,61.199ZM53.192,65.223L53.192,63.416C53.641,63.577 53.96,63.812 53.96,64.221C53.96,64.703 53.688,65.1 53.192,65.223ZM61.886,65.285L59.729,65.285C60.732,63.961 62.559,62.252 62.559,60.531C62.559,58.959 61.392,57.956 59.941,57.956C58.492,57.956 57.17,59.207 57.17,60.767C57.17,61.249 57.465,61.67 58.03,61.67C59.163,61.67 58.514,59.664 59.87,59.664C60.353,59.664 60.72,60.11 60.72,60.618C60.72,61.063 60.519,61.447 60.307,61.769C59.411,63.13 58.349,64.245 57.37,65.47C57.253,65.618 57.099,65.842 57.099,66.102C57.099,66.671 57.499,66.918 58.018,66.918L61.956,66.918C62.404,66.918 62.805,66.671 62.805,66.102C62.805,65.533 62.405,65.285 61.886,65.285ZM68.552,62.116C69.2,61.682 69.519,61.002 69.519,60.221C69.519,59.255 68.706,57.955 67.007,57.955C65.698,57.955 64.437,58.995 64.437,59.961C64.437,60.419 64.72,60.877 65.205,60.877C66.006,60.877 65.853,59.663 66.973,59.663C67.504,59.663 67.823,60.022 67.823,60.493C67.823,61.867 66.148,60.988 66.148,62.288C66.148,63.749 68.153,62.474 68.153,64.207C68.153,64.863 67.658,65.358 67.045,65.358C65.712,65.358 65.901,63.91 65.099,63.91C64.675,63.91 64.192,64.257 64.192,64.739C64.192,65.718 65.277,67.067 67.022,67.067C68.696,67.067 69.993,65.816 69.993,64.331C69.99,63.354 69.401,62.524 68.552,62.116Z" style="fill:rgb(228,102,92);fill-rule:nonzero;"/>
            <rect x="28" y="48" width="44" height="2" style="fill:rgb(217,216,215);fill-rule:nonzero;"/>
            <path d="M28,22.974L64,22.974L64,18.977L28,18.977L28,22.974ZM56,26.978L28,26.978L28,30.975L56,30.975L56,26.978ZM28,38.974L62,38.974L62,34.978L28,34.978L28,38.974ZM68,18.981L68,23.001L72,23.001L72,18.981L68,18.981ZM68,31.001L72,31.001L72,26.981L68,26.981L68,31.001ZM68,39.001L72,39.001L72,34.981L68,34.981L68,39.001Z" style="fill:rgb(134,134,134);fill-rule:nonzero;"/>
            <g>
                <path d="M37,1.717C35.644,2.081 34.308,2.496 33,2.969L33,11L37,11L37,1.717ZM41,0.824C40.329,0.946 39.662,1.08 39,1.229L39,11L41,11L41,0.824ZM31,3.747C29.983,4.165 28.982,4.614 28,5.096L28,11L31,11L31,3.747ZM46,0.174C44.992,0.254 43.991,0.36 43,0.498L43,11L46,11L46,0.174ZM50,0C49.329,0 48.664,0.024 48,0.051L48,11L50,11L50,0ZM68,3.353C67.34,3.098 66.673,2.859 66,2.631L66,11L68,11L68,3.353ZM70,4.172L70,11L72,11L72,5.096C71.342,4.773 70.674,4.467 70,4.172ZM56,0.371C54.682,0.213 53.349,0.103 52,0.051L52,11L56,11L56,0.371ZM60.001,1.002C59.339,0.868 58.671,0.752 58,0.645L58,11L60.001,11L60.001,1.002ZM64,2.001C63.339,1.808 62.674,1.625 62.001,1.459L62.001,11L64,11L64,2.001Z" style="fill:rgb(228,102,92);fill-rule:nonzero;"/>
            </g>
            <g transform="matrix(1,0,0,1,0,-5.24908)">
                <path d="M37,1.717C35.644,2.081 34.308,2.496 33,2.969L33,11L37,11L37,1.717ZM41,0.824C40.329,0.946 39.662,1.08 39,1.229L39,11L41,11L41,0.824ZM31,3.747C29.983,4.165 28.982,4.614 28,5.096L28,11L31,11L31,3.747ZM46,0.174C44.992,0.254 43.991,0.36 43,0.498L43,11L46,11L46,0.174ZM50,0C49.329,0 48.664,0.024 48,0.051L48,11L50,11L50,0ZM68,3.353C67.34,3.098 66.673,2.859 66,2.631L66,11L68,11L68,3.353ZM70,4.172L70,11L72,11L72,5.096C71.342,4.773 70.674,4.467 70,4.172ZM56,0.371C54.682,0.213 53.349,0.103 52,0.051L52,11L56,11L56,0.371ZM60.001,1.002C59.339,0.868 58.671,0.752 58,0.645L58,11L60.001,11L60.001,1.002ZM64,2.001C63.339,1.808 62.674,1.625 62.001,1.459L62.001,11L64,11L64,2.001Z" style="fill:rgb(228,102,92);fill-rule:nonzero;"/>
            </g>
        </g>
    </g>
    <defs>
        <linearGradient id="_Linear1" x1="0" y1="0" x2="1" y2="0" gradientUnits="userSpaceOnUse" gradientTransform="matrix(5.22924e-15,-85.4,85.4,5.22924e-15,43,85.7)"><stop offset="0" style="stop-color:rgb(0,128,117);stop-opacity:1"/><stop offset="1" style="stop-color:rgb(0,191,175);stop-opacity:1"/></linearGradient>
    </defs>
</svg>
